<svg width="69" height="28" viewBox="0 0 69 28" fill="none" xmlns="http://www.w3.org/2000/svg">
<g filter="url(#filter0_d_143_1331)">
<path d="M64.26 9.11345L56.79 0.25408C56.6829 0.128803 56.5494 0.0454187 56.4057 0.0139797C56.262 -0.0174593 56.1141 0.00438982 55.98 0.0768924C55.71 0.228767 55.53 0.570486 55.53 0.950174V8.88564L48.26 0.25408C48.1529 0.128803 48.0194 0.0454187 47.8757 0.0139797C47.732 -0.0174593 47.5841 0.00438982 47.45 0.0768924C47.18 0.228767 47 0.570486 47 0.950174V18.6689C47 19.0486 47.18 19.3903 47.45 19.5422C47.55 19.5928 47.65 19.6181 47.75 19.6181C47.94 19.6181 48.12 19.5295 48.26 19.365L55.53 10.7335V18.6689C55.53 19.0486 55.71 19.3903 55.98 19.5422C56.08 19.5928 56.18 19.6181 56.28 19.6181C56.47 19.6181 56.65 19.5295 56.79 19.365L64.26 10.5056C64.41 10.3285 64.5 10.0753 64.5 9.80955C64.5 9.54377 64.41 9.29064 64.26 9.11345ZM48.5 16.4794V3.1397L54.12 9.80955L48.5 16.4794ZM57.03 16.4794V3.1397L62.65 9.80955L57.03 16.4794Z" fill="black"/>
<path d="M63.8777 9.43576L63.8784 9.43652C63.9445 9.51459 64 9.64997 64 9.80955C64 9.96913 63.9445 10.1045 63.8784 10.1826L63.8777 10.1833L56.4092 19.041C56.409 19.0412 56.4088 19.0414 56.4087 19.0416C56.3507 19.1094 56.3041 19.1181 56.28 19.1181C56.2687 19.1181 56.2488 19.1161 56.2167 19.1014C56.1375 19.0508 56.03 18.9006 56.03 18.6689V10.7335V10.2554V9.36366V8.88564V0.950174C56.03 0.713724 56.1419 0.562138 56.2215 0.514752C56.2527 0.498828 56.2775 0.497767 56.2988 0.50243C56.3232 0.507767 56.3642 0.525841 56.4091 0.577997C56.4094 0.578337 56.4097 0.57868 56.41 0.579023L63.8777 9.43576ZM55.1476 9.20774L55.6544 9.80955L55.1476 10.4114L47.8792 19.041C47.879 19.0412 47.8788 19.0415 47.8786 19.0417C47.8207 19.1095 47.7741 19.1181 47.75 19.1181C47.7387 19.1181 47.7188 19.1161 47.6867 19.1014C47.6075 19.0509 47.5 18.9006 47.5 18.6689V0.950174C47.5 0.713726 47.6119 0.56214 47.6915 0.514753C47.7227 0.498828 47.7475 0.497767 47.7688 0.50243C47.7932 0.507764 47.8341 0.525819 47.879 0.577904C47.8793 0.578275 47.8797 0.578648 47.88 0.579023L55.1476 9.20774ZM48 16.4794V17.8488L48.8824 16.8016L54.5024 10.1317L54.7738 9.80955L54.5024 9.48737L48.8824 2.81753L48 1.77033V3.1397V16.4794ZM56.53 16.4794V17.8488L57.4124 16.8016L63.0324 10.1317L63.3038 9.80955L63.0324 9.48737L57.4124 2.81753L56.53 1.77033V3.1397V16.4794Z" stroke="black"/>
</g>
<g filter="url(#filter1_d_143_1331)">
<path d="M21 18.275C21 18.6178 20.9323 18.8687 20.8625 19.0153L13.5799 10.4632L13.5798 10.4631C13.5143 10.3861 13.4285 10.1477 13.4285 9.80654C13.4285 9.46544 13.5143 9.22699 13.5798 9.14999L20.8632 0.602293C20.9326 0.748876 21 0.999253 21 1.34116V18.275ZM20.779 0.47363C20.779 0.473555 20.7799 0.474162 20.7815 0.475677C20.7798 0.474462 20.779 0.473705 20.779 0.47363ZM20.7785 19.1434C20.7786 19.1433 20.7794 19.1425 20.7811 19.1413C20.7794 19.1429 20.7785 19.1435 20.7785 19.1434ZM12.0715 18.275C12.0715 18.6178 12.0038 18.8687 11.934 19.0153L4.65138 10.4632L4.65133 10.4631C4.58574 10.3861 4.5 10.1477 4.5 9.80654C4.5 9.46544 4.58574 9.22699 4.65133 9.14999L11.9347 0.602213C12.0042 0.748783 12.0715 0.999176 12.0715 1.34116V18.275ZM11.8507 0.473612C11.8507 0.473537 11.8515 0.474143 11.8532 0.475656C11.8515 0.474443 11.8506 0.473686 11.8507 0.473612ZM11.85 19.1434C11.85 19.1433 11.8508 19.1425 11.8525 19.1413C11.8509 19.1428 11.85 19.1435 11.85 19.1434Z" stroke="black" stroke-miterlimit="10" shape-rendering="crispEdges"/>
</g>
<defs>
<filter id="filter0_d_143_1331" x="43" y="0" width="25.5" height="27.6182" filterUnits="userSpaceOnUse" color-interpolation-filters="sRGB">
<feFlood flood-opacity="0" result="BackgroundImageFix"/>
<feColorMatrix in="SourceAlpha" type="matrix" values="0 0 0 0 0 0 0 0 0 0 0 0 0 0 0 0 0 0 127 0" result="hardAlpha"/>
<feOffset dy="4"/>
<feGaussianBlur stdDeviation="2"/>
<feComposite in2="hardAlpha" operator="out"/>
<feColorMatrix type="matrix" values="0 0 0 0 0 0 0 0 0 0 0 0 0 0 0 0 0 0 0.25 0"/>
<feBlend mode="normal" in2="BackgroundImageFix" result="effect1_dropShadow_143_1331"/>
<feBlend mode="normal" in="SourceGraphic" in2="effect1_dropShadow_143_1331" result="shape"/>
</filter>
<filter id="filter1_d_143_1331" x="0" y="0" width="25.5" height="27.6172" filterUnits="userSpaceOnUse" color-interpolation-filters="sRGB">
<feFlood flood-opacity="0" result="BackgroundImageFix"/>
<feColorMatrix in="SourceAlpha" type="matrix" values="0 0 0 0 0 0 0 0 0 0 0 0 0 0 0 0 0 0 127 0" result="hardAlpha"/>
<feOffset dy="4"/>
<feGaussianBlur stdDeviation="2"/>
<feComposite in2="hardAlpha" operator="out"/>
<feColorMatrix type="matrix" values="0 0 0 0 0 0 0 0 0 0 0 0 0 0 0 0 0 0 0.25 0"/>
<feBlend mode="normal" in2="BackgroundImageFix" result="effect1_dropShadow_143_1331"/>
<feBlend mode="normal" in="SourceGraphic" in2="effect1_dropShadow_143_1331" result="shape"/>
</filter>
</defs>
</svg>
