<svg width="124" height="20" viewBox="0 0 124 20" fill="none" xmlns="http://www.w3.org/2000/svg">
<path d="M124 10C124 4.48 119.52 0 114 0C108.48 0 104 4.48 104 10C104 14.84 107.44 18.87 112 19.8V13H110V10H112V7.5C112 5.57 113.57 4 115.5 4H118V7H116C115.45 7 115 7.45 115 8V10H118V13H115V19.95C120.05 19.45 124 15.19 124 10Z" fill="black"/>
<path d="M72.92 3C72.15 3.35 71.32 3.58 70.46 3.69C71.34 3.16 72.02 2.32 72.34 1.31C71.51 1.81 70.59 2.16 69.62 2.36C68.83 1.5 67.72 1 66.46 1C64.11 1 62.19 2.92 62.19 5.29C62.19 5.63 62.23 5.96 62.3 6.27C58.74 6.09 55.57 4.38 53.46 1.79C53.09 2.42 52.88 3.16 52.88 3.94C52.88 5.43 53.63 6.75 54.79 7.5C54.08 7.5 53.42 7.3 52.84 7V7.03C52.84 9.11 54.32 10.85 56.28 11.24C55.6507 11.4122 54.9901 11.4362 54.35 11.31C54.6216 12.1625 55.1535 12.9084 55.871 13.4429C56.5885 13.9775 57.4554 14.2737 58.35 14.29C56.8336 15.4904 54.954 16.1393 53.02 16.13C52.68 16.13 52.34 16.11 52 16.07C53.9 17.29 56.16 18 58.58 18C66.46 18 70.79 11.46 70.79 5.79C70.79 5.6 70.79 5.42 70.78 5.23C71.62 4.63 72.34 3.87 72.92 3Z" fill="black"/>
<path d="M5.8 0H14.2C17.4 0 20 2.6 20 5.8V14.2C20 15.7383 19.3889 17.2135 18.3012 18.3012C17.2135 19.3889 15.7383 20 14.2 20H5.8C2.6 20 0 17.4 0 14.2V5.8C0 4.26174 0.61107 2.78649 1.69878 1.69878C2.78649 0.61107 4.26174 0 5.8 0ZM5.6 2C4.64522 2 3.72955 2.37928 3.05442 3.05442C2.37928 3.72955 2 4.64522 2 5.6V14.4C2 16.39 3.61 18 5.6 18H14.4C15.3548 18 16.2705 17.6207 16.9456 16.9456C17.6207 16.2705 18 15.3548 18 14.4V5.6C18 3.61 16.39 2 14.4 2H5.6ZM15.25 3.5C15.5815 3.5 15.8995 3.6317 16.1339 3.86612C16.3683 4.10054 16.5 4.41848 16.5 4.75C16.5 5.08152 16.3683 5.39946 16.1339 5.63388C15.8995 5.8683 15.5815 6 15.25 6C14.9185 6 14.6005 5.8683 14.3661 5.63388C14.1317 5.39946 14 5.08152 14 4.75C14 4.41848 14.1317 4.10054 14.3661 3.86612C14.6005 3.6317 14.9185 3.5 15.25 3.5ZM10 5C11.3261 5 12.5979 5.52678 13.5355 6.46447C14.4732 7.40215 15 8.67392 15 10C15 11.3261 14.4732 12.5979 13.5355 13.5355C12.5979 14.4732 11.3261 15 10 15C8.67392 15 7.40215 14.4732 6.46447 13.5355C5.52678 12.5979 5 11.3261 5 10C5 8.67392 5.52678 7.40215 6.46447 6.46447C7.40215 5.52678 8.67392 5 10 5ZM10 7C9.20435 7 8.44129 7.31607 7.87868 7.87868C7.31607 8.44129 7 9.20435 7 10C7 10.7956 7.31607 11.5587 7.87868 12.1213C8.44129 12.6839 9.20435 13 10 13C10.7956 13 11.5587 12.6839 12.1213 12.1213C12.6839 11.5587 13 10.7956 13 10C13 9.20435 12.6839 8.44129 12.1213 7.87868C11.5587 7.31607 10.7956 7 10 7Z" fill="black"/>
</svg>
