<svg width="124" height="29" viewBox="0 0 124 29" fill="none" xmlns="http://www.w3.org/2000/svg">
<path d="M124 14.6668C124 6.75488 119.52 0.333618 114 0.333618C108.48 0.333618 104 6.75488 104 14.6668C104 21.604 107.44 27.3803 112 28.7133V18.9667H110V14.6668H112V11.0835C112 8.31719 113.57 6.06688 115.5 6.06688H118V10.3668H116C115.45 10.3668 115 11.0118 115 11.8001V14.6668H118V18.9667H115V28.9283C120.05 28.2116 124 22.1057 124 14.6668Z" fill="black"/>
<path d="M72.92 4.6336C72.15 5.13526 71.32 5.46492 70.46 5.62259C71.34 4.86293 72.02 3.65895 72.34 2.2113C71.51 2.92795 70.59 3.42961 69.62 3.71628C68.83 2.48363 67.72 1.76697 66.46 1.76697C64.11 1.76697 62.19 4.51894 62.19 7.91589C62.19 8.40322 62.23 8.87622 62.3 9.32055C58.74 9.06255 55.57 6.61158 53.46 2.89929C53.09 3.80228 52.88 4.86293 52.88 5.98092C52.88 8.11656 53.63 10.0085 54.79 11.0835C54.08 11.0835 53.42 10.7969 52.84 10.3669V10.4099C52.84 13.3912 54.32 15.8851 56.28 16.4441C55.6507 16.691 54.9901 16.7253 54.35 16.5445C54.6216 17.7663 55.1535 18.8355 55.871 19.6016C56.5885 20.3678 57.4554 20.7924 58.35 20.8157C56.8336 22.5364 54.954 23.4664 53.02 23.453C52.68 23.453 52.34 23.4244 52 23.367C53.9 25.1157 56.16 26.1333 58.58 26.1333C66.46 26.1333 70.79 16.7595 70.79 8.63255C70.79 8.36022 70.79 8.10223 70.78 7.8299C71.62 6.96991 72.34 5.88059 72.92 4.6336Z" fill="black"/>
<path d="M5.8 0.333618H14.2C17.4 0.333618 20 4.06024 20 8.64685V20.6867C20 22.8915 19.3889 25.006 18.3012 26.5651C17.2135 28.1241 15.7383 28.9999 14.2 28.9999H5.8C2.6 28.9999 0 25.2733 0 20.6867V8.64685C0 6.44205 0.61107 4.32754 1.69878 2.76851C2.78649 1.20947 4.26174 0.333618 5.8 0.333618ZM5.6 3.20025C4.64522 3.20025 3.72955 3.74389 3.05442 4.71156C2.37928 5.67924 2 6.99169 2 8.36019V20.9734C2 23.8257 3.61 26.1333 5.6 26.1333H14.4C15.3548 26.1333 16.2705 25.5897 16.9456 24.622C17.6207 23.6543 18 22.3419 18 20.9734V8.36019C18 5.50789 16.39 3.20025 14.4 3.20025H5.6ZM15.25 5.35023C15.5815 5.35023 15.8995 5.53899 16.1339 5.87499C16.3683 6.21098 16.5 6.6667 16.5 7.14187C16.5 7.61704 16.3683 8.07276 16.1339 8.40876C15.8995 8.74475 15.5815 8.93352 15.25 8.93352C14.9185 8.93352 14.6005 8.74475 14.3661 8.40876C14.1317 8.07276 14 7.61704 14 7.14187C14 6.6667 14.1317 6.21098 14.3661 5.87499C14.6005 5.53899 14.9185 5.35023 15.25 5.35023ZM10 7.5002C11.3261 7.5002 12.5979 8.25525 13.5355 9.59924C14.4732 10.9432 15 12.7661 15 14.6668C15 16.5675 14.4732 18.3903 13.5355 19.7343C12.5979 21.0783 11.3261 21.8334 10 21.8334C8.67392 21.8334 7.40215 21.0783 6.46447 19.7343C5.52678 18.3903 5 16.5675 5 14.6668C5 12.7661 5.52678 10.9432 6.46447 9.59924C7.40215 8.25525 8.67392 7.5002 10 7.5002ZM10 10.3668C9.20435 10.3668 8.44129 10.8199 7.87868 11.6263C7.31607 12.4327 7 13.5264 7 14.6668C7 15.8072 7.31607 16.9009 7.87868 17.7073C8.44129 18.5137 9.20435 18.9667 10 18.9667C10.7956 18.9667 11.5587 18.5137 12.1213 17.7073C12.6839 16.9009 13 15.8072 13 14.6668C13 13.5264 12.6839 12.4327 12.1213 11.6263C11.5587 10.8199 10.7956 10.3668 10 10.3668Z" fill="black"/>
</svg>
