<svg width="25" height="366" viewBox="0 0 25 366" fill="none" xmlns="http://www.w3.org/2000/svg">
<path d="M7 26.2098V8.73661L15 0L23 8.73661V26.2098H17V16.0171H13V26.2098H7Z" fill="black"/>
<path d="M5 94.3597V73.9743L15 68.1499L25 73.9743V94.3597H19V82.7109H11V94.3597H5ZM12 94.3597V91.4475H14V94.3597H12ZM14 89.9914V87.0792H16V89.9914H14ZM16 94.3597V91.4475H18V94.3597H16Z" fill="black"/>
<path fill-rule="evenodd" clip-rule="evenodd" d="M3 200.465C2.73478 200.465 2.48043 200.618 2.29289 200.891C2.10536 201.164 2 201.535 2 201.921V222.306C2 224.278 2.897 225.943 4.129 226.488C4.3124 227.369 4.68224 228.143 5.18573 228.7C5.68921 229.256 6.3006 229.567 6.93263 229.588C7.56466 229.609 8.18502 229.338 8.70516 228.815C9.22529 228.292 9.61862 227.542 9.829 226.674H16.17C16.3804 227.542 16.7737 228.292 17.2938 228.815C17.814 229.338 18.4343 229.609 19.0664 229.588C19.6984 229.567 20.3098 229.256 20.8133 228.7C21.3168 228.143 21.6866 227.369 21.87 226.488C22.4862 226.216 23.0259 225.662 23.4094 224.909C23.793 224.156 24 223.244 24 222.306V216.482C24 215.526 23.8707 214.579 23.6194 213.696C23.3681 212.812 22.9998 212.01 22.5355 211.334C22.0712 210.658 21.52 210.121 20.9134 209.755C20.3068 209.39 19.6566 209.201 19 209.201H15V201.921C15 201.535 14.8946 201.164 14.7071 200.891C14.5196 200.618 14.2652 200.465 14 200.465H3ZM16.171 223.762H15V212.113H19C19.7956 212.113 20.5587 212.574 21.1213 213.393C21.6839 214.212 22 215.323 22 216.482V222.306C22.0001 222.497 21.9743 222.687 21.924 222.863C21.8738 223.04 21.8 223.201 21.707 223.336C21.4513 222.556 21.0426 221.904 20.5325 221.462C20.0223 221.021 19.4337 220.81 18.8411 220.855C18.2485 220.901 17.6785 221.201 17.2032 221.719C16.7279 222.236 16.3687 222.947 16.171 223.762ZM6.293 224.189C6.38525 224.05 6.49559 223.939 6.6176 223.863C6.7396 223.786 6.87082 223.746 7.0036 223.744C7.13638 223.743 7.26806 223.78 7.39095 223.853C7.51385 223.926 7.6255 224.034 7.7194 224.171C7.81329 224.308 7.88754 224.47 7.93782 224.649C7.9881 224.828 8.0134 225.02 8.01225 225.213C8.0111 225.406 7.98351 225.597 7.9311 225.775C7.87869 225.953 7.80251 226.113 7.707 226.248C7.5184 226.513 7.2658 226.66 7.0036 226.656C6.7414 226.653 6.49059 226.5 6.30518 226.23C6.11977 225.96 6.0146 225.595 6.01233 225.213C6.01005 224.831 6.11084 224.463 6.293 224.189ZM18 225.218C18 224.832 18.1054 224.462 18.2929 224.189C18.4804 223.916 18.7348 223.762 19 223.762C19.2652 223.762 19.5196 223.916 19.7071 224.189C19.8946 224.462 20 224.832 20 225.218C20 225.605 19.8946 225.975 19.7071 226.248C19.5196 226.521 19.2652 226.674 19 226.674C18.7348 226.674 18.4804 226.521 18.2929 226.248C18.1054 225.975 18 225.605 18 225.218Z" fill="black"/>
<path d="M11 365.883V355.691H9V346.954C9 346.153 9.196 345.467 9.588 344.896C9.98 344.326 10.4507 344.041 11 344.042H15C15.55 344.042 16.021 344.327 16.413 344.898C16.805 345.469 17.0007 346.154 17 346.954V355.691H15V365.883H11ZM13 342.586C12.45 342.586 11.979 342.3 11.587 341.729C11.195 341.159 10.9993 340.473 11 339.673C11 338.873 11.196 338.187 11.588 337.616C11.98 337.045 12.4507 336.76 13 336.761C13.55 336.761 14.021 337.047 14.413 337.617C14.805 338.188 15.0007 338.874 15 339.673C15 340.474 14.804 341.16 14.412 341.731C14.02 342.302 13.5493 342.587 13 342.586Z" fill="black"/>
<path d="M14.4375 124.299L22 129.346V140.602L20.625 139.684V131.397L15.125 135.067V138.767L13.75 139.684V135.067L8.25 131.397V134.651L6.875 133.734V129.346L14.4375 124.299ZM14.4375 133.476L16.3389 132.199L11.3652 128.4L9.09863 129.92L14.4375 133.476ZM17.8213 131.224L19.7764 129.92L14.4375 126.349L12.8369 127.425L17.8213 131.224ZM12.375 140.602L11 141.52V141.505L6.875 144.258V150.783L11 148.015V150.08L6.1875 153.292L0 149.148V139.455L6.1875 135.325L12.375 139.455V140.602ZM5.5 150.783V144.258L1.375 141.505V148.015L5.5 150.783ZM6.1875 142.667L10.1514 140.028L6.1875 137.376L2.22363 140.028L6.1875 142.667ZM12.375 142.652L17.1875 139.441L22 142.652V150.209L17.1875 153.421L12.375 150.209V142.652ZM16.5 150.912V146.538L13.75 144.703V149.076L16.5 150.912ZM20.625 149.076V144.703L17.875 146.538V150.912L20.625 149.076ZM17.1875 144.947L19.7764 143.212L17.1875 141.491L14.5986 143.212L17.1875 144.947Z" fill="black"/>
<path d="M19 287.902C17.89 287.902 17 289.198 17 290.814C17 291.586 17.2107 292.327 17.5858 292.873C17.9609 293.419 18.4696 293.726 19 293.726C19.5304 293.726 20.0391 293.419 20.4142 292.873C20.7893 292.327 21 291.586 21 290.814C21 290.042 20.7893 289.301 20.4142 288.755C20.0391 288.209 19.5304 287.902 19 287.902ZM3 264.604V267.516H5L8.6 278.568L7.24 282.136C7.09 282.543 7 283.024 7 283.534C7 284.306 7.21071 285.047 7.58579 285.593C7.96086 286.139 8.46957 286.446 9 286.446H21V283.534H9.42C9.3537 283.534 9.29011 283.495 9.24322 283.427C9.19634 283.359 9.17 283.266 9.17 283.17C9.17 283.097 9.18 283.038 9.2 282.995L10.1 280.621H17.55C18.3 280.621 18.96 280.01 19.3 279.122L22.88 269.701C22.95 269.468 23 269.22 23 268.973C23 268.586 22.8946 268.216 22.7071 267.943C22.5196 267.67 22.2652 267.516 22 267.516H7.21L6.27 264.604M9 287.902C7.89 287.902 7 289.198 7 290.814C7 291.586 7.21071 292.327 7.58579 292.873C7.96086 293.419 8.46957 293.726 9 293.726C9.53043 293.726 10.0391 293.419 10.4142 292.873C10.7893 292.327 11 291.586 11 290.814C11 290.042 10.7893 289.301 10.4142 288.755C10.0391 288.209 9.53043 287.902 9 287.902Z" fill="black"/>
</svg>
