<svg width="25" height="379" viewBox="0 0 25 379" fill="none" xmlns="http://www.w3.org/2000/svg">
<path d="M7 26.2098V8.73661L15 0L23 8.73661V26.2098H17V16.0171H13V26.2098H7Z" fill="black"/>
<path d="M5 97.3647V76.9793L15 71.1549L25 76.9793V97.3647H19V85.7159H11V97.3647H5ZM12 97.3647V94.4525H14V97.3647H12ZM14 92.9964V90.0842H16V92.9964H14ZM16 97.3647V94.4525H18V97.3647H16Z" fill="black"/>
<path fill-rule="evenodd" clip-rule="evenodd" d="M3 213.465C2.73478 213.465 2.48043 213.618 2.29289 213.891C2.10536 214.164 2 214.535 2 214.921V235.306C2 237.278 2.897 238.943 4.129 239.488C4.3124 240.369 4.68224 241.143 5.18573 241.7C5.68921 242.256 6.3006 242.567 6.93263 242.588C7.56466 242.609 8.18502 242.338 8.70516 241.815C9.22529 241.292 9.61862 240.542 9.829 239.674H16.17C16.3804 240.542 16.7737 241.292 17.2938 241.815C17.814 242.338 18.4343 242.609 19.0664 242.588C19.6984 242.567 20.3098 242.256 20.8133 241.7C21.3168 241.143 21.6866 240.369 21.87 239.488C22.4862 239.216 23.0259 238.662 23.4094 237.909C23.793 237.156 24 236.244 24 235.306V229.482C24 228.526 23.8707 227.579 23.6194 226.696C23.3681 225.812 22.9998 225.01 22.5355 224.334C22.0712 223.658 21.52 223.121 20.9134 222.755C20.3068 222.39 19.6566 222.201 19 222.201H15V214.921C15 214.535 14.8946 214.164 14.7071 213.891C14.5196 213.618 14.2652 213.465 14 213.465H3ZM16.171 236.762H15V225.113H19C19.7956 225.113 20.5587 225.574 21.1213 226.393C21.6839 227.212 22 228.323 22 229.482V235.306C22.0001 235.497 21.9743 235.687 21.924 235.863C21.8738 236.04 21.8 236.201 21.707 236.336C21.4513 235.556 21.0426 234.904 20.5325 234.462C20.0223 234.021 19.4337 233.81 18.8411 233.855C18.2485 233.901 17.6785 234.201 17.2032 234.719C16.7279 235.236 16.3687 235.947 16.171 236.762ZM6.293 237.189C6.38525 237.05 6.49559 236.939 6.6176 236.863C6.7396 236.786 6.87082 236.746 7.0036 236.744C7.13638 236.743 7.26806 236.78 7.39095 236.853C7.51385 236.926 7.6255 237.034 7.7194 237.171C7.81329 237.308 7.88754 237.47 7.93782 237.649C7.9881 237.828 8.0134 238.02 8.01225 238.213C8.0111 238.406 7.98351 238.597 7.9311 238.775C7.87869 238.953 7.80251 239.113 7.707 239.248C7.5184 239.513 7.2658 239.66 7.0036 239.656C6.7414 239.653 6.49059 239.5 6.30518 239.23C6.11977 238.96 6.0146 238.595 6.01233 238.213C6.01005 237.831 6.11084 237.463 6.293 237.189ZM18 238.218C18 237.832 18.1054 237.462 18.2929 237.189C18.4804 236.916 18.7348 236.762 19 236.762C19.2652 236.762 19.5196 236.916 19.7071 237.189C19.8946 237.462 20 237.832 20 238.218C20 238.605 19.8946 238.975 19.7071 239.248C19.5196 239.521 19.2652 239.674 19 239.674C18.7348 239.674 18.4804 239.521 18.2929 239.248C18.1054 238.975 18 238.605 18 238.218Z" fill="black"/>
<path d="M11 378.883V368.691H9V359.954C9 359.153 9.196 358.467 9.588 357.896C9.98 357.326 10.4507 357.041 11 357.042H15C15.55 357.042 16.021 357.327 16.413 357.898C16.805 358.469 17.0007 359.154 17 359.954V368.691H15V378.883H11ZM13 355.586C12.45 355.586 11.979 355.3 11.587 354.729C11.195 354.159 10.9993 353.473 11 352.673C11 351.873 11.196 351.187 11.588 350.616C11.98 350.045 12.4507 349.76 13 349.761C13.55 349.761 14.021 350.047 14.413 350.617C14.805 351.188 15.0007 351.874 15 352.673C15 353.474 14.804 354.16 14.412 354.731C14.02 355.302 13.5493 355.587 13 355.586Z" fill="black"/>
<path d="M14.4375 137.299L22 142.346V153.602L20.625 152.684V144.397L15.125 148.067V151.767L13.75 152.684V148.067L8.25 144.397V147.651L6.875 146.734V142.346L14.4375 137.299ZM14.4375 146.476L16.3389 145.199L11.3652 141.4L9.09863 142.92L14.4375 146.476ZM17.8213 144.224L19.7764 142.92L14.4375 139.349L12.8369 140.425L17.8213 144.224ZM12.375 153.602L11 154.52V154.505L6.875 157.258V163.783L11 161.015V163.08L6.1875 166.292L0 162.148V152.455L6.1875 148.325L12.375 152.455V153.602ZM5.5 163.783V157.258L1.375 154.505V161.015L5.5 163.783ZM6.1875 155.667L10.1514 153.028L6.1875 150.376L2.22363 153.028L6.1875 155.667ZM12.375 155.652L17.1875 152.441L22 155.652V163.209L17.1875 166.421L12.375 163.209V155.652ZM16.5 163.912V159.538L13.75 157.703V162.076L16.5 163.912ZM20.625 162.076V157.703L17.875 159.538V163.912L20.625 162.076ZM17.1875 157.947L19.7764 156.212L17.1875 154.491L14.5986 156.212L17.1875 157.947Z" fill="black"/>
<path d="M19 300.902C17.89 300.902 17 302.198 17 303.814C17 304.586 17.2107 305.327 17.5858 305.873C17.9609 306.419 18.4696 306.726 19 306.726C19.5304 306.726 20.0391 306.419 20.4142 305.873C20.7893 305.327 21 304.586 21 303.814C21 303.042 20.7893 302.301 20.4142 301.755C20.0391 301.209 19.5304 300.902 19 300.902ZM3 277.604V280.516H5L8.6 291.568L7.24 295.136C7.09 295.543 7 296.024 7 296.534C7 297.306 7.21071 298.047 7.58579 298.593C7.96086 299.139 8.46957 299.446 9 299.446H21V296.534H9.42C9.3537 296.534 9.29011 296.495 9.24322 296.427C9.19634 296.359 9.17 296.266 9.17 296.17C9.17 296.097 9.18 296.038 9.2 295.995L10.1 293.621H17.55C18.3 293.621 18.96 293.01 19.3 292.122L22.88 282.701C22.95 282.468 23 282.22 23 281.973C23 281.586 22.8946 281.216 22.7071 280.943C22.5196 280.67 22.2652 280.516 22 280.516H7.21L6.27 277.604M9 300.902C7.89 300.902 7 302.198 7 303.814C7 304.586 7.21071 305.327 7.58579 305.873C7.96086 306.419 8.46957 306.726 9 306.726C9.53043 306.726 10.0391 306.419 10.4142 305.873C10.7893 305.327 11 304.586 11 303.814C11 303.042 10.7893 302.301 10.4142 301.755C10.0391 301.209 9.53043 300.902 9 300.902Z" fill="black"/>
</svg>
