<svg width="40" height="33" viewBox="0 0 40 33" fill="none" xmlns="http://www.w3.org/2000/svg">
<path d="M36.6667 0H3.33333C2.44955 0.00072803 1.60222 0.290693 0.977286 0.806261C0.352356 1.32183 0.000882461 2.02088 0 2.75V30.25C0.000882461 30.9791 0.352356 31.6782 0.977286 32.1937C1.60222 32.7093 2.44955 32.9993 3.33333 33H36.6667C37.5504 32.9993 38.3978 32.7093 39.0227 32.1937C39.6476 31.6782 39.9991 30.9791 40 30.25V2.75C39.9991 2.02088 39.6476 1.32183 39.0227 0.806261C38.3978 0.290693 37.5504 0.00072803 36.6667 0ZM23.3333 2.75V8.25H16.6667V2.75H23.3333ZM3.33333 30.25V2.75H13.3333V11H26.6667V2.75H36.6667L36.6683 30.25H3.33333Z" fill="black"/>
</svg>
