<svg width="40" height="33" viewBox="0 0 40 33" fill="none" xmlns="http://www.w3.org/2000/svg">
<path d="M26.25 0L40 5.71935V18.4742L37.5 17.4343V8.04284L27.5 12.2024V16.3944L25 17.4343V12.2024L15 8.04284V11.7312L12.5 10.6913V5.71935L26.25 0ZM26.25 10.3988L29.707 8.95273L20.6641 4.64697L16.543 6.36928L26.25 10.3988ZM32.4023 7.84786L35.957 6.36928L26.25 2.32349L23.3398 3.5421L32.4023 7.84786ZM22.5 18.4742L20 19.514V19.4978L12.5 22.6174V30.0103L20 26.8744V29.2142L11.25 32.8538L0 28.1581V17.1743L11.25 12.4948L22.5 17.1743V18.4742ZM10 30.0103V22.6174L2.5 19.4978V26.8744L10 30.0103ZM11.25 20.8139L18.457 17.8242L11.25 14.8183L4.04297 17.8242L11.25 20.8139ZM22.5 20.7976L31.25 17.1581L40 20.7976V29.3604L31.25 33L22.5 29.3604V20.7976ZM30 30.1566V25.2009L25 23.1211V28.0768L30 30.1566ZM37.5 28.0768V23.1211L32.5 25.2009V30.1566L37.5 28.0768ZM31.25 23.3973L35.957 21.4313L31.25 19.4815L26.543 21.4313L31.25 23.3973Z" fill="black"/>
</svg>
