<svg width="42" height="35" viewBox="0 0 42 35" fill="none" xmlns="http://www.w3.org/2000/svg">
<path d="M2.568 1L39.368 14.2762M39.368 14.2762L32.488 16.3323M39.368 14.2762L36.808 8.79308M2.6 14.9615H7.4C7.82435 14.9615 8.23131 15.0953 8.53137 15.3333C8.83143 15.5713 9 15.8941 9 16.2308V34H1V16.2308C1 15.8941 1.16857 15.5713 1.46863 15.3333C1.76869 15.0953 2.17565 14.9615 2.6 14.9615ZM18.6 18.7692H23.4C23.8243 18.7692 24.2313 18.903 24.5314 19.141C24.8314 19.379 25 19.7018 25 20.0385V34H17V20.0385C17 19.7018 17.1686 19.379 17.4686 19.141C17.7687 18.903 18.1757 18.7692 18.6 18.7692ZM34.6 22.5769H39.4C39.8243 22.5769 40.2313 22.7106 40.5314 22.9487C40.8314 23.1867 41 23.5095 41 23.8462V34H33V23.8462C33 23.5095 33.1686 23.1867 33.4686 22.9487C33.7687 22.7106 34.1757 22.5769 34.6 22.5769Z" stroke="black" stroke-linecap="round" stroke-linejoin="round"/>
</svg>
